<?xml version="1.0" encoding="utf-8"?><!-- Generator: Adobe Illustrator 18.1.1, SVG Export Plug-In . SVG Version: 6.00 Build 0)  --><svg xmlns="http://www.w3.org/2000/svg" xmlns:xlink="http://www.w3.org/1999/xlink" version="1.1" id="Layer_1" x="0px" y="0px" viewBox="0 0 48 48" enable-background="new 0 0 48 48" xml:space="preserve">
<g>
	<path fill="#3F51B5" d="M18.7,25.2L6.4,37.5c-1.1,1.1-1.1,2.2,0,3.3l1.9,1.9c1.3,1.3,7.4-1.5,10.1-4.1c2.7-2.7,5.7-7.9,4.6-9   L18.7,25.2z"/>
</g>
<g>
	<g>
		<path fill="#90A4AE" d="M42.3,5c0,0-3.3,3.4-6.9,3.4c-6.1,6.1-17.1,17.1-17.1,17.1l8.3,8.3C44.6,15.9,42.3,5,42.3,5L42.3,5z"/>
	</g>
</g>
<circle fill="#9FA8DA" cx="10" cy="39" r="1"/>
<circle fill="#9FA8DA" cx="19" cy="30" r="1"/>
<path fill="#78909C" d="M23.2,25.5L23.2,25.5c-0.3-0.3-0.3-0.7,0-1l16-16l-0.1,2.1L24.2,25.5C23.9,25.8,23.5,25.8,23.2,25.5z"/>
<path fill="#C62828" d="M38.9,7.5c-0.9,1-2.3,1.8-2.1,3.1c0.5,2.6,0.5,4.3-1.5,5.3s-2,2.3-1.7,4.3C34.2,24,31.1,28,29.4,31  c13.4-14.5,13.2-23.8,13-25.7c0-0.1,0-0.2,0-0.3C42.3,5,40.9,6.5,38.9,7.5z"/>
<path fill="#C62828" d="M34.1,24c0,0-1.2,0.7-2.3,4.2c1.5-1.9,2-0.7,1,1.4c0.9,0.3,0.5-1.2,2-0.7c-1-2.9,1.3-6.1,1.9-7.2  C36.3,20.9,34.1,24,34.1,24z"/>
<path fill="#C62828" d="M32,37.5c0,0.8-0.7,1.5-1.5,1.5c-0.8,0-1.5-0.7-1.5-1.5s1.5-3.5,1.5-3.5S32,36.7,32,37.5z"/>
<path fill="#C62828" d="M36,32c0,1.1-0.9,2-2,2c-1.1,0-2-0.9-2-2c0-1.1,2-4.7,2-4.7S36,30.9,36,32z"/>
</svg>