<?xml version="1.0" encoding="utf-8"?><!-- Generator: Adobe Illustrator 18.1.1, SVG Export Plug-In . SVG Version: 6.00 Build 0)  --><svg xmlns="http://www.w3.org/2000/svg" xmlns:xlink="http://www.w3.org/1999/xlink" version="1.1" id="Layer_1" x="0px" y="0px" viewBox="0 0 48 48" enable-background="new 0 0 48 48" xml:space="preserve">
<g>
	<path fill="#FFA726" d="M36.8,20h1.1c0.5,0,1.5,0.2,1.5,1.1s-0.3,1.8-0.5,2.3c-0.2,0.5-0.2,2.3-0.3,3.1c-0.2,0.8-0.2,1.5-0.5,2.1   c-0.3,0.6-0.6,1.1-1.6,1.1h-0.8L36.8,20z"/>
	<path fill="#FFA726" d="M11.2,20h-1.1c-0.5,0-1.5,0.2-1.5,1.1s0.3,1.8,0.5,2.3c0.2,0.5,0.2,2.3,0.3,3.1c0.2,0.8,0.2,1.5,0.5,2.1   c0.3,0.6,0.6,1.1,1.6,1.1h0.8L11.2,20z"/>
</g>
<g>
	<path fill="#BD7A18" d="M37.1,22.3c0.9,0,1.2,0.7,1.2,1c0,1-1,2.5-1,2.5s0.1-0.9,0.2-1.2c0.3-0.9,0.1-1-0.3-1   c-0.3,0-0.3-0.4-0.3-0.7C36.9,22.6,36.7,22.3,37.1,22.3z"/>
	<path fill="#BD7A18" d="M36.7,21.8c0,0,0.6-1.2,1.4-1.2c0.5,0,0.8,0,0.8,0.6c0,0.7-0.3,1.5-0.3,1.5s0.2-1.4-0.3-1.5   S36.8,21.6,36.7,21.8z"/>
	<path fill="#BD7A18" d="M11.1,22.8c0,0.2,0,0.7-0.3,0.7c-0.4,0-0.6,0.2-0.3,1c0.1,0.3,0.2,1.2,0.2,1.2s-1-1.5-1-2.5   c0-0.2,0.3-1,1.2-1C11.3,22.3,11.1,22.6,11.1,22.8z"/>
	<path fill="#BD7A18" d="M11.3,21.8c0,0-0.6-1.2-1.4-1.2c-0.5,0-0.8,0-0.8,0.6c0,0.7,0.3,1.5,0.3,1.5s-0.2-1.4,0.3-1.5   S11.2,21.6,11.3,21.8z"/>
</g>
<path fill="#FFB74D" d="M37.9,20c0-0.5-0.2-2.3-0.8-5.8C36.1,8.8,29.5,3,24,3S11.9,8.8,10.9,14.1c-0.6,3.6-0.8,5.2-0.8,5.8  c1.5,1.9,0.5,1.8,0.5,4.4c0.2,2.4,1.1,2.6,1.3,7.1c0,0.5,0,2.1,0.8,3.7c1,1.8,4,9.9,11.3,9.9s10.3-8.1,11.1-9.9  c0.8-1.8,0.8-3.4,0.8-3.7c0.2-4.5,1.1-4.7,1.3-7.1S36.4,22.1,37.9,20z"/>
<g>
	<path fill="#616161" d="M26.9,21.3c0,0-0.2,1.1,0.3,1.3s1.5-0.5,3.2-0.5c1,0,1.3-0.2,1.9-0.5c0.5-0.3,1-0.8,1-0.8s-1.5-0.3-2.1-0.3   C30,20.3,28,20.6,26.9,21.3z"/>
	<path fill="#616161" d="M21.1,21.3c0,0,0.2,1.1-0.3,1.3s-1.5-0.5-3.2-0.5c-1,0-1.3-0.2-1.9-0.5c-0.5-0.3-1-0.8-1-0.8   s1.5-0.3,2.1-0.3C18,20.3,20,20.6,21.1,21.3z"/>
	<path fill="#616161" d="M11.2,23.2c0-1.3,1.8-7.8,1.8-8.7c0-2.3,1.3-5.3,3.6-6.3c1.3-0.6,3.4,2.6,7.4,2.6s6.1-3.1,7.4-2.6   c2.3,1,3.6,4,3.6,6.3c-0.2,0.8,1.7,7.4,1.7,8.7l0.6,1.1c0.2-2.4-0.8-2.3,0.6-4.4c0-0.5-0.2-2.3-0.8-5.8C36.1,8.8,29.5,3,24,3   S11.9,8.8,10.9,14.1c-0.6,3.6-0.8,5.2-0.8,5.8c1.5,1.9,0.5,1.8,0.5,4.4L11.2,23.2z"/>
</g>
<path fill="#918873" d="M27.4,40.6c-1.8,0,0.2-2.3-0.2-2.6c-0.3-0.3-2.4,0.3-3.2,0.3c-0.8,0-2.9-0.6-3.2-0.3  c-0.3,0.3,1.8,2.6-0.2,2.6c-2.3,0-2.1-1.5-2.1-1.9c0-0.5,0.6-2.3,1.5-2.4c0.8-0.2,3.2,0.3,3.9,0.3l0,0l0,0c0.6,0,3.2-0.5,3.9-0.3  c0.6,0.2,1.5,1.9,1.5,2.4S29.7,40.6,27.4,40.6z M10.6,24.3c0.2,2.4,1.1,2.6,1.3,7.1c0,0.5,0,2.1,0.8,3.7c1,1.8,4,9.9,11.3,9.9  s10.3-8.1,11.1-9.9c0.8-1.8,0.8-3.4,0.8-3.7c0.2-4.5,1.1-4.7,1.3-7.1l-0.6-1.1c0,1.3-2.5,7.8-2.7,8.1c-0.3,0.8-1.5,1.3-1.8,1.6  c-0.3,0.6-0.8,4.4-1.8,4.4c-0.5,0-0.9-2.4-1.1-2.7C29,34,28,33.4,26.1,33.4c-1.1,0-0.6,1.1-2.1,1.3c-1.5,0-1-1.3-2.1-1.3  c-2.1,0-2.9,0.6-3.2,1.1c-0.2,0.3-0.7,2.7-1.2,2.7c-1,0-1.5-3.9-1.8-4.4c-0.3-0.3-1.5-0.8-1.8-1.6c-0.2-0.3-2.6-6.8-2.7-8.1  L10.6,24.3z"/>
<path fill="#FFC062" d="M24.6,24.4h-1.1L23,32.6c0,0.5,0.4,1,1,1h0c0.5,0,1-0.5,1-1L24.6,24.4z"/>
<g>
	<ellipse fill="#70574F" cx="29.2" cy="23.9" rx="1.5" ry="1.3"/>
	<ellipse fill="#1F1F1F" cx="29.2" cy="23.8" rx="0.7" ry="0.6"/>
	<ellipse fill="#FFFFFF" cx="28.9" cy="23.3" rx="0.3" ry="0.3"/>
</g>
<g>
	<ellipse fill="#70574F" cx="18.8" cy="23.9" rx="1.5" ry="1.3"/>
	<ellipse fill="#1F1F1F" cx="18.8" cy="23.8" rx="0.7" ry="0.6"/>
	<ellipse fill="#FFFFFF" cx="18.5" cy="23.3" rx="0.3" ry="0.3"/>
</g>
<g>
	<path fill="#546E7A" d="M38.1,19.7c-0.1-0.1-0.3-0.1-0.4,0l-3.4,4.5h-1.1c-0.1,0-0.2,0.1-0.2,0.2s0.1,0.2,0.2,0.2h1.2   c0.1,0,0.2,0,0.2-0.1l3.5-4.6C38.3,19.9,38.2,19.8,38.1,19.7z"/>
	<path fill="#546E7A" d="M14.7,24.2h-1.1l-3.4-4.5c-0.1-0.1-0.2-0.1-0.4,0c-0.1,0.1-0.1,0.2,0,0.4l3.5,4.6c0,0.1,0.1,0.1,0.2,0.1   h1.2c0.1,0,0.2-0.1,0.2-0.2S14.9,24.2,14.7,24.2z"/>
	<path fill="#546E7A" d="M22.1,24.7C22,24.8,22,25,22,25.1s0.2,0.1,0.3,0.1c0.4-0.3,1-0.4,1.5-0.4c0.6,0,1.1,0.1,1.7,0.4   c0,0,0.1,0,0.1,0c0.1,0,0.2-0.1,0.2-0.1c0.1-0.1,0-0.3-0.1-0.3C24.5,24.1,23,24.1,22.1,24.7z"/>
</g>
<g>
	<path fill="#90A4AE" d="M29.5,21c-2.2,0-4,1.8-4,4s1.8,4,4,4s4-1.8,4-4S31.7,21,29.5,21z M29.5,28.5c-1.9,0-3.5-1.6-3.5-3.5   s1.6-3.5,3.5-3.5S33,23.1,33,25S31.4,28.5,29.5,28.5z"/>
	<path fill="#90A4AE" d="M18.5,21c-2.2,0-4,1.8-4,4s1.8,4,4,4s4-1.8,4-4S20.7,21,18.5,21z M18.5,28.5c-1.9,0-3.5-1.6-3.5-3.5   s1.6-3.5,3.5-3.5S22,23.1,22,25S20.4,28.5,18.5,28.5z"/>
</g>
</svg>